<svg width="1728" height="7941" viewBox="0 0 1728 7941" fill="none" xmlns="http://www.w3.org/2000/svg">
<g clip-path="url(#clip0_7760_401)">
<rect width="1728" height="7941" fill="black"/>
<path d="M715.565 1009.57C-1423.44 -603.931 1491.07 1035.57 1585.56 633.569C1680.06 231.57 1279.56 95.5687 816.063 -9.43125" stroke="white" stroke-opacity="0.24"/>
<path d="M1816.56 207.068C1267.56 43.5685 893.565 347.317 650.064 207.068C406.563 66.8183 -35.9361 162.569 -80.9355 661.068" stroke="white" stroke-opacity="0.24"/>
<path d="M1928.56 780.069C1406.06 969.569 1125.56 965.222 763.128 874.069C400.692 782.916 146.064 874.069 -37.9358 1038.57" stroke="white" stroke-opacity="0.24"/>
<rect x="332" y="705.866" width="39" height="39" transform="rotate(-7.16752 332 705.866)" fill="url(#paint0_linear_7760_401)"/>
<rect x="1465.62" y="208.267" width="39" height="39" transform="rotate(85.0654 1465.62 208.267)" fill="url(#paint1_linear_7760_401)"/>
<rect x="348.234" y="153.467" width="39" height="39" transform="rotate(124.16 348.234 153.467)" fill="url(#paint2_linear_7760_401)"/>
<rect x="1387.32" y="700.888" width="39" height="39" transform="rotate(153.453 1387.32 700.888)" fill="url(#paint3_linear_7760_401)"/>
<g filter="url(#filter0_f_7760_401)">
<rect x="1096" y="-73" width="505" height="491" rx="100" fill="#12B4B2" fill-opacity="0.3"/>
</g>
<g filter="url(#filter1_f_7760_401)">
<rect x="74" y="453" width="481" height="448" rx="100" fill="#12B4B2" fill-opacity="0.3"/>
</g>
<g filter="url(#filter2_f_7760_401)">
<rect x="1013" y="1390" width="633.226" height="642" rx="100" fill="#12B4B2" fill-opacity="0.3"/>
</g>
<g filter="url(#filter3_f_7760_401)">
<rect x="21" y="2184" width="633.226" height="642" rx="100" fill="#12B4B2" fill-opacity="0.3"/>
</g>
<g filter="url(#filter4_f_7760_401)">
<rect x="896" y="3100" width="633.226" height="642" rx="100" fill="#12B4B2" fill-opacity="0.3"/>
</g>
<g filter="url(#filter5_f_7760_401)">
<rect x="-190" y="5289" width="633.226" height="642" rx="100" fill="#12B4B2" fill-opacity="0.3"/>
</g>
<g filter="url(#filter6_f_7760_401)">
<rect x="1585" y="5313" width="340" height="334" rx="100" fill="#160325" fill-opacity="0.7"/>
</g>
<g filter="url(#filter7_f_7760_401)">
<rect x="1192" y="6167" width="516" height="523" rx="100" fill="#12B4B2" fill-opacity="0.3"/>
</g>
<g filter="url(#filter8_f_7760_401)">
<rect x="981" y="7258" width="349" height="357" rx="100" fill="#12B4B2" fill-opacity="0.3"/>
</g>
</g>
<defs>
<filter id="filter0_f_7760_401" x="596" y="-573" width="1505" height="1491" filterUnits="userSpaceOnUse" color-interpolation-filters="sRGB">
<feFlood flood-opacity="0" result="BackgroundImageFix"/>
<feBlend mode="normal" in="SourceGraphic" in2="BackgroundImageFix" result="shape"/>
<feGaussianBlur stdDeviation="250" result="effect1_foregroundBlur_7760_401"/>
</filter>
<filter id="filter1_f_7760_401" x="-426" y="-47" width="1481" height="1448" filterUnits="userSpaceOnUse" color-interpolation-filters="sRGB">
<feFlood flood-opacity="0" result="BackgroundImageFix"/>
<feBlend mode="normal" in="SourceGraphic" in2="BackgroundImageFix" result="shape"/>
<feGaussianBlur stdDeviation="250" result="effect1_foregroundBlur_7760_401"/>
</filter>
<filter id="filter2_f_7760_401" x="513" y="890" width="1633.23" height="1642" filterUnits="userSpaceOnUse" color-interpolation-filters="sRGB">
<feFlood flood-opacity="0" result="BackgroundImageFix"/>
<feBlend mode="normal" in="SourceGraphic" in2="BackgroundImageFix" result="shape"/>
<feGaussianBlur stdDeviation="250" result="effect1_foregroundBlur_7760_401"/>
</filter>
<filter id="filter3_f_7760_401" x="-479" y="1684" width="1633.23" height="1642" filterUnits="userSpaceOnUse" color-interpolation-filters="sRGB">
<feFlood flood-opacity="0" result="BackgroundImageFix"/>
<feBlend mode="normal" in="SourceGraphic" in2="BackgroundImageFix" result="shape"/>
<feGaussianBlur stdDeviation="250" result="effect1_foregroundBlur_7760_401"/>
</filter>
<filter id="filter4_f_7760_401" x="396" y="2600" width="1633.23" height="1642" filterUnits="userSpaceOnUse" color-interpolation-filters="sRGB">
<feFlood flood-opacity="0" result="BackgroundImageFix"/>
<feBlend mode="normal" in="SourceGraphic" in2="BackgroundImageFix" result="shape"/>
<feGaussianBlur stdDeviation="250" result="effect1_foregroundBlur_7760_401"/>
</filter>
<filter id="filter5_f_7760_401" x="-690" y="4789" width="1633.23" height="1642" filterUnits="userSpaceOnUse" color-interpolation-filters="sRGB">
<feFlood flood-opacity="0" result="BackgroundImageFix"/>
<feBlend mode="normal" in="SourceGraphic" in2="BackgroundImageFix" result="shape"/>
<feGaussianBlur stdDeviation="250" result="effect1_foregroundBlur_7760_401"/>
</filter>
<filter id="filter6_f_7760_401" x="1085" y="4813" width="1340" height="1334" filterUnits="userSpaceOnUse" color-interpolation-filters="sRGB">
<feFlood flood-opacity="0" result="BackgroundImageFix"/>
<feBlend mode="normal" in="SourceGraphic" in2="BackgroundImageFix" result="shape"/>
<feGaussianBlur stdDeviation="250" result="effect1_foregroundBlur_7760_401"/>
</filter>
<filter id="filter7_f_7760_401" x="692" y="5667" width="1516" height="1523" filterUnits="userSpaceOnUse" color-interpolation-filters="sRGB">
<feFlood flood-opacity="0" result="BackgroundImageFix"/>
<feBlend mode="normal" in="SourceGraphic" in2="BackgroundImageFix" result="shape"/>
<feGaussianBlur stdDeviation="250" result="effect1_foregroundBlur_7760_401"/>
</filter>
<filter id="filter8_f_7760_401" x="481" y="6758" width="1349" height="1357" filterUnits="userSpaceOnUse" color-interpolation-filters="sRGB">
<feFlood flood-opacity="0" result="BackgroundImageFix"/>
<feBlend mode="normal" in="SourceGraphic" in2="BackgroundImageFix" result="shape"/>
<feGaussianBlur stdDeviation="250" result="effect1_foregroundBlur_7760_401"/>
</filter>
<linearGradient id="paint0_linear_7760_401" x1="332" y1="744.866" x2="371" y2="705.866" gradientUnits="userSpaceOnUse">
<stop stop-color="#254A71"/>
<stop offset="1" stop-color="#254A71" stop-opacity="0"/>
</linearGradient>
<linearGradient id="paint1_linear_7760_401" x1="1469.62" y1="211.267" x2="1504.62" y2="250.767" gradientUnits="userSpaceOnUse">
<stop stop-color="#254A71"/>
<stop offset="1" stop-color="#254A71" stop-opacity="0"/>
</linearGradient>
<linearGradient id="paint2_linear_7760_401" x1="352.234" y1="156.467" x2="387.234" y2="195.967" gradientUnits="userSpaceOnUse">
<stop stop-color="#336497" stop-opacity="0.53"/>
<stop offset="1" stop-color="#1B4775"/>
</linearGradient>
<linearGradient id="paint3_linear_7760_401" x1="1391.32" y1="703.888" x2="1426.32" y2="743.388" gradientUnits="userSpaceOnUse">
<stop stop-color="#336497" stop-opacity="0.53"/>
<stop offset="1" stop-color="#1B4775"/>
</linearGradient>
<clipPath id="clip0_7760_401">
<rect width="1728" height="7941" fill="white"/>
</clipPath>
</defs>
</svg>
